<?xml version="1.0" encoding="utf-8"?>
<!-- Generator: Adobe Illustrator 19.1.0, SVG Export Plug-In . SVG Version: 6.00 Build 0)  -->
<svg version="1.1" id="Layer_1" xmlns="http://www.w3.org/2000/svg" xmlns:xlink="http://www.w3.org/1999/xlink" x="0px" y="0px"
	 viewBox="0 0 467.7 326" style="enable-background:new 0 0 467.7 326;" xml:space="preserve">
<style type="text/css">
	.st0{fill-rule:evenodd;clip-rule:evenodd;fill:#222222;}
</style>
<path class="st0" d="M307.1,128.6c0-8.3,11.9-12.3,11.9-2.4v46.6c0,8.2-11.9,12-11.9,2.4V128.6L307.1,128.6z M307.1,212l-24,4.9
	l0-88.8c0-5-5.2-3-5.2-5.9c0-1.8,2.2-3.1,12.4-7.7c12.4-5.6,13.4-5.1,16.3,0.5c5.3-5.6,10.1-9,17.9-10.6c16-3.2,21.1,25.6,21.1,37.2
	c0,30.4-12.9,47-23.1,49.1c-5.1,1.1-12.6,0.4-15.3-1.9V212L307.1,212z M181.2,214.1l0-63.8c0-5-6.5-4.4-6.5-6.7
	c0-1.7,3.2-4.2,13.5-8.5c12.5-5.2,12.8-6.2,17.4,1.8c4.7-5.4,8.8-10.2,16.3-11.7c8.1-1.6,12.8,2.3,15.1,5.3c4-4.5,9.4-10.2,18.1-12
	c11.5-2.3,18,3.6,18,12.2v64.7l-23.5,4.8v-58.5c0-7.9-10.6-7.5-10.6,2.2v58.5l-23.5,4.8v-58.7c0-7.9-10.6-7.5-10.6,2.2v58.7
	L181.2,214.1L181.2,214.1z M173.6,177.5c0,1.7,0,3.2,0,4.8l-38.1,7.7v20.7c0,10.2,13.1,10.2,13.1,0v-13.9l24.5-5
	c0,19-14.8,34.6-30.9,35.9c-15.2,1.3-31.4-4.2-31.4-37.4c0-30.8,12.4-45.9,31.4-49.8C168.3,135.2,173.6,157.7,173.6,177.5
	L173.6,177.5z M135.5,159.6c0-11.9,13.1-12.4,13.1-2.7v20l-13.1,2.7V159.6L135.5,159.6z M375.6,110.2c0-8.4,11.9-12.3,11.9-2.4v54.3
	c0,8.2-11.9,12-11.9,2.4V110.2L375.6,110.2z M413.5,129.2c0,12.3-2.5,43-26,49.7c-1.9,0.5-5.6,1.5-12,1.5c-20,0-25.1-26.6-25.1-38.3
	c0-23.1,10-45.2,26-49.7c1.9-0.5,5.5-1.5,12-1.5C408.3,90.9,413.5,117.5,413.5,129.2L413.5,129.2z M57.6,256.3
	c7.2,0,12.2-8,12.2-18.1v-80.9c0-20.9,30.3-33.3,34.5-30.2c-2.7,4.1-3.5,9.5-3.5,13.2v74.1c0,43-39.2,50.5-48.9,50.5
	c-26.3,0-31.3-20.1-31.3-24.6c8.1-1.6,27.8-5.6,27.8-5.6s0.1,4.4,0.1,6.3C48.5,245.6,48.7,256.3,57.6,256.3L57.6,256.3z M155.2,252
	c-32.5,6.6-47.1,25.5-47.1,33.4h32.2c0-3.5,3.3-14.8,18-17.8c14.4-2.9,176.3-35.9,242.6-49.4c34.4-7,51.8-23.2,51.8-40.6l-34.1,6.9
	c0,9.6-8,15.4-21,18C344.1,213.5,186,245.8,155.2,252L155.2,252z M78.2,107.2c-54,10.9-64.6,48.2-63.1,55.7l37.5-7.6
	c0-4.8,2.3-27.1,32.2-33.1c14.4-2.9,176.3-35.9,242.6-49.4c25-5.1,44.4-21.3,44.4-32.3h-31.6c0,5.7-8.6,15.1-16,16.7
	C270.5,68.1,109,101,78.2,107.2L78.2,107.2z"/>
</svg>
