<?xml version="1.0" encoding="utf-8"?>
<!-- Generator: Adobe Illustrator 19.1.0, SVG Export Plug-In . SVG Version: 6.00 Build 0)  -->
<svg version="1.1" id="Layer_1" xmlns="http://www.w3.org/2000/svg" xmlns:xlink="http://www.w3.org/1999/xlink" x="0px" y="0px"
	 viewBox="0 0 549 229" style="enable-background:new 0 0 549 229;" xml:space="preserve">
<style type="text/css">
	.st0{fill:#222222;}
</style>
<g>
	<path class="st0" d="M133.9,177.7c2-0.3,4.4-0.5,7-0.5c4.7,0,8.1,1.1,10.4,3.2c2.3,2.1,3.6,5.1,3.6,9.2c0,4.2-1.3,7.6-3.7,10
		c-2.4,2.4-6.3,3.7-11.3,3.7c-2.4,0-4.3-0.1-6-0.3V177.7z M137.2,200.3c0.8,0.2,2.1,0.2,3.3,0.2c7.1,0,10.9-4,10.9-10.9
		c0-6-3.4-9.9-10.4-9.9c-1.7,0-3,0.2-3.9,0.3V200.3z"/>
	<path class="st0" d="M207.6,189.9c0,8.8-5.4,13.5-11.9,13.5c-6.8,0-11.5-5.2-11.5-13c0-8.1,5.1-13.5,11.9-13.5
		C203.1,176.9,207.6,182.3,207.6,189.9z M187.7,190.3c0,5.5,3,10.4,8.2,10.4c5.2,0,8.2-4.8,8.2-10.6c0-5.1-2.7-10.4-8.2-10.4
		C190.5,179.6,187.7,184.7,187.7,190.3z"/>
	<path class="st0" d="M251.7,190.9h-10v9.2h11.1v2.8h-14.4v-25.6h13.8v2.8h-10.5v8.1h10V190.9z"/>
	<path class="st0" d="M283.2,198.9c1.5,0.9,3.6,1.7,5.9,1.7c3.4,0,5.4-1.8,5.4-4.4c0-2.4-1.4-3.8-4.8-5.1c-4.2-1.5-6.8-3.6-6.8-7.3
		c0-4,3.3-7,8.3-7c2.6,0,4.5,0.6,5.7,1.3l-0.9,2.7c-0.8-0.5-2.5-1.2-4.9-1.2c-3.5,0-4.8,2.1-4.8,3.8c0,2.4,1.6,3.6,5.1,4.9
		c4.3,1.7,6.5,3.8,6.5,7.5c0,4-2.9,7.4-9,7.4c-2.5,0-5.2-0.7-6.5-1.6L283.2,198.9z"/>
	<path class="st0" d="M366.8,177.3v25.6h-3.3v-25.6H366.8z"/>
	<path class="st0" d="M403.9,180.1h-7.8v-2.8h19v2.8h-7.8v22.8h-3.3V180.1z"/>
</g>
<g>
	<polygon class="st0" points="113,55 119,21 34,21 14,149 101,149 106.7,113 66,113 67.8,101 102,101 107.3,67 73,67 75.3,55 	"/>
	<path class="st0" d="M184.3,21L119,149h49l7.3-18h34.9l1.8,18h48.7L235,21H184.3z M187.9,100l15.4-37.8l3.8,37.8H187.9z"/>
	<path class="st0" d="M339.3,54c4.3-3.7,16.3-3.3,32.3,6.7c0.3,0,18-31.7,18-31.7s-11-12.3-39-11.3s-56,17-61.3,43
		C284,86.7,302.7,97,319.7,99s14.3,7.3,14.3,7.3s2,8.3-14.7,8.3c-16.7,0-27.3-13-27.3-13l-19,35c0,0,17.7,12.3,48.3,12.3
		c30.7,0,56.3-19,61.3-45s-15-34-32.7-38S335,57.7,339.3,54z"/>
	<polygon class="st0" points="482,21 463.3,53.9 454.7,20.6 401.2,20.8 434.6,92.6 425.3,148 471,148 480,93.8 535,21 	"/>
</g>
</svg>
